<svg width="32" height="32" viewBox="0 0 32 32" xmlns="http://www.w3.org/2000/svg">
    <title>53A7E150-A938-424B-BF1B-906D8598812E</title>
    <g fill="none" fill-rule="evenodd">
        <path d="M16 32C7.178 32 0 24.822 0 16S7.178 0 16 0s16 7.178 16 16-7.178 16-16 16z" fill="#f55c68"/>
        <path d="M23.467 26.667c-8.823 0-16-7.178-16-16 0-3.693 1.27-7.088 3.38-9.8C4.547 3.02 0 8.984 0 16c0 8.822 7.178 16 16 16 5.13 0 9.69-2.436 12.62-6.201a15.9 15.9 0 0 1-5.153.868z"
              fill="#F22031"/>
        <path d="M12.69 24.276a1.1 1.1 0 0 1-.78-.323l-6.621-6.621a1.103 1.103 0 1 1 1.56-1.56l5.84 5.84 11.358-11.358a1.103 1.103 0 1 1 1.56 1.56L13.47 23.954a1.1 1.1 0 0 1-.78.323z"
              fill="#FFF"/>
    </g>
</svg>