<?xml version="1.0" encoding="UTF-8" standalone="no"?>
<svg width="112px" height="40px" viewBox="0 0 112 40" version="1.1" xmlns="http://www.w3.org/2000/svg" xmlns:xlink="http://www.w3.org/1999/xlink">
    <!-- Generator: Sketch 3.8.1 (29687) - http://www.bohemiancoding.com/sketch -->
    <title>Artboard 1 Copy 8</title>
    <desc>Created with Sketch.</desc>
    <defs></defs>
    <g id="Page-1" stroke="none" stroke-width="1" fill="none" fill-rule="evenodd">
        <g id="Artboard-1-Copy-8">
            <g id="Alfa120" transform="translate(0.000000, 8.000000)">
                <g id="Слой_1">
                    <g id="Group">
                        <path d="M16.1994153,0.728307692 L6.86130508,0.728307692 C3.07695763,0.728307692 0,3.74861538 0,7.45938462 L0,16.6236923 C0,20.3344615 3.07695763,23.3556923 6.86130508,23.3556923 L16.1994153,23.3556923 C19.9809407,23.3556923 23.058839,20.3344615 23.058839,16.6236923 L23.058839,7.45938462 C23.058839,3.74861538 19.98,0.728307692 16.1994153,0.728307692 L16.1994153,0.728307692 Z" id="Shape" fill="#CF0A2C"></path>
                        <path d="M18.8079153,14.8227692 L18.7994492,14.9233846 C18.7665254,15.3156923 18.5163051,15.7135385 18.0995847,15.7135385 C17.7816356,15.7135385 17.5257712,15.5981538 17.3169407,15.3609231 C17.0667203,15.0775385 16.8400169,14.7369231 16.6123729,14.1203077 C17.2586186,11.9667692 19.2537966,5.06861538 19.2537966,5.06861538 L15.4685085,5.06861538 C15.4685085,5.06861538 15.1185763,6.68584615 14.8034492,8.15815385 C14.7874576,8.12215385 14.7714661,8.08615385 14.7545339,8.05292308 C14.4394068,7.392 13.9352034,6.65630769 13.3755,6.13938462 C12.4009576,5.23938462 11.2533305,4.80092308 9.86865254,4.80092308 C7.95719492,4.80092308 6.34016949,5.49507692 5.06272881,6.86307692 C3.7909322,8.22369231 3.11928814,9.96923077 3.11928814,11.9095385 C3.11928814,14.0713846 3.7570678,15.8473846 5.01475424,17.1849231 C6.327,18.5824615 7.89605085,19.2341538 9.9514322,19.2341538 C11.1489153,19.2341538 12.291839,18.8852308 13.3510424,18.1975385 C14.0349153,17.7544615 14.6604661,17.1396923 15.2502712,16.3421538 C15.4986102,17.1295385 15.7478898,17.6676923 16.0470254,18.0701538 C16.5305339,18.72 17.2548559,19.0938462 18.0327966,19.0938462 C18.8427203,19.0938462 19.5820932,18.6858462 19.9611864,18.0304615 C20.2970085,17.4489231 20.4343475,16.728 20.4343475,15.5418462 L20.4343475,14.8227692 L18.8079153,14.8227692 L18.8079153,14.8227692 L18.8079153,14.8227692 L18.8079153,14.8227692 Z M12.4639831,16.2018462 C11.8901695,17.0261538 11.1413898,17.4609231 10.296661,17.4609231 C9.31365254,17.4609231 8.56957627,17.0289231 8.02210169,16.1353846 C7.44828814,15.1993846 7.15667797,13.7981538 7.15667797,11.9676923 C7.15667797,10.2895385 7.46522034,8.95569231 8.07195763,8.00307692 C8.64294915,7.10861538 9.35786441,6.69138462 10.323,6.69138462 C11.1808983,6.69138462 11.8516017,7.04215385 12.434822,7.79630769 C13.0594322,8.60584615 13.5871525,9.94338462 13.9653051,11.6621538 C13.4921441,13.9873846 13.0274492,15.3923077 12.4639831,16.2018462 L12.4639831,16.2018462 Z" id="Shape" fill="#FFFFFF"></path>
                        <g transform="translate(27.279661, 2.769231)" id="Shape" fill="#CF0A2C">
                            <path d="M7.32223729,2.62707692 C7.06072881,1.47138462 6.31759322,0.663692308 4.68645763,0.663692308 C3.15315254,0.663692308 2.31218644,1.47138462 2.04973729,2.62707692 L0.865423729,7.86092308 L2.13157627,7.86092308 C2.42036441,7.86092308 2.70727119,7.63476923 2.76935593,7.35784615 L3.00922881,6.29261538 L6.36368644,6.29261538 L6.60355932,7.35784615 C6.66564407,7.63384615 6.95255085,7.86092308 7.24039831,7.86092308 L8.50655085,7.86092308 L7.32223729,2.62707692 L7.32223729,2.62707692 Z M3.34034746,4.81753846 L3.7570678,2.964 C3.82479661,2.664 4.06278814,2.20615385 4.68645763,2.20615385 C5.31012712,2.20615385 5.54811864,2.664 5.61584746,2.964 L6.0325678,4.81753846 L3.34034746,4.81753846 L3.34034746,4.81753846 Z"></path>
                            <path d="M11.6277203,2.41107692 L14.4516356,2.41107692 L14.4516356,7.86092308 L16.2003559,7.86092308 L16.2003559,0.832615385 L10.9287966,0.832615385 C10.352161,0.832615385 9.87994068,1.296 9.87994068,1.86184615 L9.87994068,5.41292308 C9.87994068,5.88830769 9.657,6.19015385 9.26944068,6.26676923 L8.91104237,6.35076923 L9.23557627,7.86092308 L9.56763559,7.86092308 C10.764178,7.86092308 11.628661,6.98769231 11.628661,5.50153846 L11.6277203,2.41107692"></path>
                            <path d="M31.3923051,0.832615385 L30.7554661,0.832615385 L30.7554661,0.0156923077 L29.5316441,0.0156923077 C29.2428559,0.0156923077 29.0067458,0.245538462 29.0067458,0.528923077 L29.0067458,0.831692308 L28.3699068,0.831692308 C26.2091695,0.831692308 24.8583559,2.27723077 24.8583559,4.34584615 C24.8583559,6.41446154 26.2091695,7.86 28.3699068,7.86 L29.0067458,7.86 L29.0067458,8.712 L30.2305678,8.712 C30.5193559,8.712 30.7554661,8.48030769 30.7554661,8.19876923 L30.7554661,7.86092308 L31.3923051,7.86092308 C33.5530424,7.86092308 34.9038559,6.41538462 34.9038559,4.34676923 C34.9038559,2.27815385 33.5530424,0.832615385 31.3923051,0.832615385 L31.3923051,0.832615385 Z M28.3699068,6.30830769 C27.1733644,6.30830769 26.6070763,5.56523077 26.6070763,4.34584615 C26.6070763,3.12830769 27.1733644,2.38523077 28.3699068,2.38523077 L29.0067458,2.38523077 L29.0067458,6.30830769 L28.3699068,6.30830769 L28.3699068,6.30830769 Z M31.3923051,6.30830769 L30.7554661,6.30830769 L30.7554661,2.38523077 L31.3923051,2.38523077 C32.5897881,2.38523077 33.1541949,3.12830769 33.1541949,4.34584615 C33.1541949,5.56523077 32.5897881,6.30830769 31.3923051,6.30830769 L31.3923051,6.30830769 Z"></path>
                            <path d="M21.6243051,2.61507692 L19.1155169,2.61507692 L19.1155169,0.833538462 L17.3667966,0.833538462 L17.3667966,7.34676923 C17.3667966,7.62923077 17.6029068,7.86092308 17.8916949,7.86092308 L21.6243051,7.86092308 C23.1482034,7.86092308 24.2958305,6.73384615 24.2958305,5.23753846 C24.2958305,3.74215385 23.3335169,2.61507692 21.6243051,2.61507692 L21.6243051,2.61507692 Z M21.6243051,6.28338462 L19.1155169,6.28338462 L19.1155169,4.19261538 L21.6243051,4.19261538 C22.0504322,4.19261538 22.5480508,4.56738462 22.5480508,5.23753846 C22.5489915,5.90769231 22.0504322,6.28338462 21.6243051,6.28338462 L21.6243051,6.28338462 Z"></path>
                            <path d="M41.4236949,2.62707692 C41.1612458,1.47138462 40.4190508,0.663692308 38.7869746,0.663692308 C37.2546102,0.663692308 36.4127034,1.47138462 36.1511949,2.62707692 L34.9668814,7.86092308 L36.2339746,7.86092308 C36.521822,7.86092308 36.8096695,7.63476923 36.8708136,7.35784615 L37.1106864,6.29261538 L40.4651441,6.29261538 L40.7040763,7.35784615 C40.766161,7.63384615 41.0540085,7.86092308 41.3418559,7.86092308 L42.6070678,7.86092308 L41.4236949,2.62707692 L41.4236949,2.62707692 Z M37.4427458,4.81753846 L37.8585254,2.964 C37.9271949,2.664 38.1651864,2.20615385 38.7879153,2.20615385 C39.4125254,2.20615385 39.6486356,2.664 39.7173051,2.964 L40.1330847,4.81753846 L37.4427458,4.81753846 L37.4427458,4.81753846 Z"></path>
                        </g>
                        <g transform="translate(28.220339, 12.923077)" id="Shape" fill="#CF0A2C">
                            <path d="M50.6178814,3.92215385 C50.9264237,3.624 51.1249068,3.21876923 51.1249068,2.65661538 C51.1249068,1.41046154 50.1418983,0.54 48.8710424,0.54 L44.5975424,0.54 C44.3096949,0.54 44.0726441,0.770769231 44.0726441,1.05415385 L44.0726441,7.05323077 C44.0726441,7.33569231 44.3087542,7.56738462 44.5975424,7.56738462 L49.1419576,7.56830769 C50.4805424,7.56830769 51.3704237,6.62769231 51.3704237,5.38338462 C51.3694831,4.75569231 51.0656441,4.26461538 50.6178814,3.92215385 L50.6178814,3.92215385 Z M48.8701017,1.99846154 C49.1024492,1.99846154 49.4203983,2.25507692 49.4203983,2.69169231 C49.4203983,3.132 49.1024492,3.35630769 48.8701017,3.384 L45.7865593,3.384 L45.7865593,1.99846154 L48.8701017,1.99846154 L48.8701017,1.99846154 Z M49.0102627,6.10984615 L45.7865593,6.10984615 L45.7865593,4.72338462 L49.0102627,4.72338462 C49.2426102,4.75107692 49.5605593,4.97538462 49.5605593,5.41661538 C49.5596186,5.85323077 49.2426102,6.10984615 49.0102627,6.10984615 L49.0102627,6.10984615 Z"></path>
                            <path d="M39.069178,0.377538462 C36.9075,0.377538462 35.3977119,1.88769231 35.3977119,4.05323077 C35.3977119,6.21784615 36.9084407,7.72984615 39.069178,7.72984615 L39.6674492,7.72984615 C41.8291271,7.72984615 43.3398559,6.21784615 43.3398559,4.05323077 C43.3398559,1.88769231 41.8300678,0.377538462 39.6674492,0.377538462 L39.069178,0.377538462 L39.069178,0.377538462 Z M37.2856525,4.05323077 C37.2856525,2.79323077 37.9695254,1.82953846 39.1745339,1.82953846 L39.5630339,1.82953846 C40.7671017,1.82953846 41.4509746,2.79323077 41.4509746,4.05323077 C41.4509746,5.31415385 40.7671017,6.27784615 39.5630339,6.27784615 L39.1745339,6.27784615 C37.9695254,6.27876923 37.2856525,5.31415385 37.2856525,4.05323077 L37.2856525,4.05323077 Z"></path>
                            <path d="M6.44176271,0.54 L6.67222881,1.60338462 C6.73337288,1.88676923 7.02027966,2.11753846 7.3090678,2.11753846 L8.93926271,2.11753846 L8.93926271,7.56830769 L10.6879831,7.56830769 L10.6879831,2.11661538 L12.2664407,2.11661538 C12.5542881,2.11661538 12.8402542,1.88584615 12.9013983,1.60246154 L13.1318644,0.539076923 L6.44176271,0.54"></path>
                            <polyline points="65.3347881 0.54 65.3347881 3.33046154 61.9332966 3.33046154 61.9332966 0.54 60.1845763 0.54 60.1845763 7.56830769 61.9332966 7.56830769 61.9332966 4.83784615 65.3347881 4.83784615 65.3347881 7.56830769 67.0835085 7.56830769 67.0835085 0.54 65.3347881 0.54"></polyline>
                            <path d="M26.7905085,2.33446154 C26.5280593,1.17784615 25.7868051,0.371076923 24.1547288,0.371076923 C22.6223644,0.371076923 21.7813983,1.17784615 21.5208305,2.33446154 L20.3365169,7.56830769 L21.6026695,7.56830769 C21.8914576,7.56830769 22.1783644,7.34307692 22.2404492,7.06615385 L22.4793814,6 L25.8328983,6 L26.0727712,7.06615385 C26.1339153,7.34215385 26.4217627,7.56830769 26.7105508,7.56830769 L27.9757627,7.56830769 L26.7905085,2.33446154 L26.7905085,2.33446154 Z M22.8086186,4.52492308 L23.225339,2.67138462 C23.2930678,2.37230769 23.5301186,1.91353846 24.1537881,1.91353846 C24.7774576,1.91353846 25.0154492,2.37230769 25.083178,2.67230769 L25.4989576,4.52492308 L22.8086186,4.52492308 L22.8086186,4.52492308 Z"></path>
                            <path d="M58.2279661,2.33446154 C57.9655169,1.17784615 57.223322,0.371076923 55.5912458,0.371076923 C54.0579407,0.371076923 53.2179153,1.17784615 52.9554661,2.33446154 L51.7711525,7.56830769 L53.0382458,7.56830769 C53.3260932,7.56830769 53.6139407,7.34307692 53.6750847,7.06615385 L53.9149576,6 L57.2694153,6 L57.5092881,7.06615385 C57.5713729,7.34215385 57.8582797,7.56830769 58.1461271,7.56830769 L59.414161,7.56830769 L58.2279661,2.33446154 L58.2279661,2.33446154 Z M54.2460763,4.52492308 L54.6627966,2.67138462 C54.7314661,2.37230769 54.9685169,1.91353846 55.5921864,1.91353846 C56.2158559,1.91353846 56.4538475,2.37230769 56.5215763,2.67230769 L56.9373559,4.52492308 C56.9373559,4.52492308 54.2460763,4.52492308 54.2460763,4.52492308 L54.2460763,4.52492308 Z"></path>
                            <path d="M6.98547458,7.548 L6.98547458,7.56830769 L3.56987288,7.56830769 C1.50226271,7.56830769 0.0573813559,6.12369231 0.0573813559,4.05323077 C0.0573813559,1.98461538 1.50132203,0.54 3.56987288,0.54 L6.16144068,0.54 L5.90745763,1.61630769 C5.84255085,1.89230769 5.55376271,2.11661538 5.26497458,2.11661538 L3.56987288,2.11661538 C2.46457627,2.11661538 1.80610169,2.92615385 1.80610169,4.05323077 C1.80610169,5.18030769 2.46457627,5.98984615 3.56987288,5.98984615 L6.09465254,5.98984615 C6.3825,5.98984615 6.67222881,6.21507692 6.73713559,6.49107692 L6.98547458,7.548"></path>
                            <path d="M17.8173814,0.54 L14.0857119,0.540923077 C13.7969237,0.540923077 13.5608136,0.772615385 13.5608136,1.05507692 L13.5608136,7.56923077 L15.3095339,7.56923077 L15.3095339,5.78676923 L17.8173814,5.78676923 C19.5284746,5.78676923 20.4907881,4.65969231 20.4907881,3.16430769 C20.4898475,1.668 19.3412797,0.54 17.8173814,0.54 L17.8173814,0.54 Z M17.8173814,4.20738462 L15.3095339,4.20738462 L15.3095339,2.11938462 L17.8173814,2.11938462 C18.2444492,2.11938462 18.7420678,2.49323077 18.7420678,3.16338462 C18.7420678,3.83353846 18.2444492,4.20738462 17.8173814,4.20738462 L17.8173814,4.20738462 Z"></path>
                            <path d="M81.9057712,6.084 L78.1392966,6.084 L78.1392966,4.73446154 L82.2331271,4.73446154 L82.2331271,3.37938462 L78.1392966,3.37938462 L78.1392966,2.02338462 L81.9057712,2.02338462 C82.2161949,2.02338462 82.4607712,1.89046154 82.5463729,1.52215385 L82.779661,0.54 L76.9154746,0.54 C76.6276271,0.54 76.3905763,0.770769231 76.3905763,1.05415385 L76.3905763,7.05323077 C76.3905763,7.33569231 76.6266864,7.56830769 76.9154746,7.56830769 L82.779661,7.56830769 L82.5463729,6.58615385 C82.4607712,6.21876923 82.2161949,6.084 81.9057712,6.084"></path>
                            <path d="M68.2828729,7.56830769 L68.2828729,0.54 L70.0315932,0.54 L70.0315932,5.17661538 L73.0605763,0.954461538 C73.2317797,0.726461538 73.6061695,0.54 73.8958983,0.54 L75.1921525,0.54 L75.1921525,7.56830769 L73.4434322,7.56830769 L73.4434322,2.93169231 L70.4125678,7.15384615 C70.2432458,7.38184615 69.8669746,7.56830769 69.5791271,7.56830769 L68.2828729,7.56830769"></path>
                            <path d="M33.2482627,4.01630769 L35.6883814,0.54 L34.0826441,0.54 C33.7355339,0.54 33.4909576,0.643384615 33.2764831,0.973846154 L31.9764661,2.97692308 L31.7441186,2.97692308 L30.443161,0.973846154 C30.2296271,0.643384615 29.9859915,0.54 29.637,0.54 L27.9795254,0.54 L30.472322,4.09107692 L28.0322034,7.56738462 L29.6379407,7.56738462 C29.9869322,7.56738462 30.2305678,7.46492308 30.4441017,7.13353846 L31.7450593,5.12953846 L31.9774068,5.12953846 L33.2774237,7.13353846 C33.4918983,7.46492308 33.7355339,7.56738462 34.0835847,7.56738462 L35.7410593,7.56738462 L33.2482627,4.01630769"></path>
                        </g>
                    </g>
                </g>
            </g>
        </g>
    </g>
</svg>